<?xml version="1.0" encoding="utf-8"?>
<!-- Generator: Adobe Illustrator 19.2.1, SVG Export Plug-In . SVG Version: 6.00 Build 0)  -->
<svg version="1.1" xmlns="http://www.w3.org/2000/svg" xmlns:xlink="http://www.w3.org/1999/xlink" x="0px" y="0px"
	 viewBox="0 0 1046 606" style="enable-background:new 0 0 1046 606;" xml:space="preserve">
<style type="text/css">
	.st0{opacity:0;fill:#DA1C5C;fill-opacity:0.42;stroke:#DA1C5C;stroke-width:4;stroke-miterlimit:10;stroke-opacity:0.7;}
</style>
<rect id="roomid-612" x="511.9" y="295.6" class="st0" width="115.3" height="120"/>
<rect id="roomid-611" x="396.6" y="295.6" class="st0" width="115.3" height="120"/>
<rect id="roomid-610" x="289.9" y="295.6" class="st0" width="106.7" height="120"/>
<rect id="roomid-609-1" x="221.8" y="345.6" class="st0" width="68.2" height="69.9"/>
<polygon id="roomid-609" class="st0" points="289.9,295.6 289.9,345.6 221.8,345.6 221.8,415.6 3.9,415.6 3.9,295.6 "/>
<rect id="roomid-608" x="64.6" y="121.9" class="st0" width="106" height="114.3"/>
<rect id="roomid-607" x="292.6" y="121.9" class="st0" width="57.3" height="114.3"/>
<rect id="roomid-606-1" x="349.9" y="121.9" class="st0" width="58.7" height="63.6"/>
<polygon id="roomid-606" class="st0" points="511.3,121.9 511.3,236.2 349.9,236.2 349.9,185.4 408.6,185.4 408.6,121.9 "/>
<rect id="roomid-605" x="511.2" y="121.9" class="st0" width="116.7" height="114.3"/>
<rect id="roomid-604-1" x="757.2" y="121.9" class="st0" width="64" height="60.9"/>
<polygon id="roomid-604" class="st0" points="1037.3,121.9 1037.3,236.2 757.3,236.2 757.3,182.8 821.3,182.8 821.3,121.9 "/>
<rect id="roomid-603-1" x="975.1" y="341.8" class="st0" width="59.5" height="73.8"/>
<polygon id="roomid-603" class="st0" points="1034.6,295.6 1034.6,341.8 975.1,341.8 975.1,415.6 862.6,415.6 862.6,295.6 "/>
<rect id="roomid-602" x="759.9" y="344.7" class="st0" width="102.7" height="70.9"/>
<rect id="roomid-601" x="627.2" y="295.6" class="st0" width="132.7" height="209.3"/>
</svg>
