<?xml version="1.0" encoding="utf-8"?>
<!-- Generator: Adobe Illustrator 19.2.1, SVG Export Plug-In . SVG Version: 6.00 Build 0)  -->
<svg version="1.1" id="Layer_1" xmlns="http://www.w3.org/2000/svg" xmlns:xlink="http://www.w3.org/1999/xlink" x="0px" y="0px"
	 viewBox="0 0 1047 581" style="enable-background:new 0 0 1047 581;" xml:space="preserve">
<style type="text/css">
	.st0{opacity:0;fill:#D91C5C;fill-opacity:0.42;stroke:#D91C5C;stroke-width:4;stroke-miterlimit:10;stroke-opacity:0.7;}
</style>
<rect id="roomid-713-1" x="407.2" y="338.4" class="st0" width="57" height="68.2"/>
<polygon id="roomid-713" class="st0" points="634.7,287.3 634.7,406.7 464.2,406.7 464.2,338.4 407.2,338.4 407.2,287.3 "/>
<rect id="roomid-712" x="291.8" y="287.3" class="st0" width="115.4" height="119.3"/>
<rect id="roomid-711" x="177.5" y="287.3" class="st0" width="114.2" height="119.3"/>
<rect id="roomid-710" x="6.9" y="287.3" class="st0" width="170.7" height="119.3"/>
<rect id="roomid-709" x="67.1" y="112" class="st0" width="106.4" height="120"/>
<rect id="roomid-708-2" x="294.3" y="184.3" class="st0" width="60.5" height="47.7"/>
<rect id="roomid-708-1" x="294.3" y="112" class="st0" width="60.5" height="72.3"/>
<rect id="roomid-708" x="354.8" y="112" class="st0" width="216.5" height="120"/>
<rect id="roomid-707" x="571.3" y="112" class="st0" width="57" height="120"/>
<rect id="roomid-706-1" x="763.9" y="112" class="st0" width="56.4" height="66.9"/>
<polygon id="roomid-706" class="st0" points="925.8,112 925.8,232 763.9,232 763.9,178.9 820.4,178.9 820.4,112 "/>
<rect id="roomid-705" x="925.8" y="112" class="st0" width="111.1" height="120"/>
<rect id="roomid-704" x="860.3" y="287.3" class="st0" width="176.6" height="119.3"/>
<rect id="roomid-703" x="809" y="287.3" class="st0" width="51.3" height="119.3"/>
<rect id="roomid-702" x="758.2" y="343.3" class="st0" width="50.8" height="63.4"/>
<rect id="roomid-701" x="634.7" y="287.3" class="st0" width="123.5" height="211.5"/>
</svg>
